<svg width="182" height="182" viewBox="0 0 182 182" fill="none" xmlns="http://www.w3.org/2000/svg">
<g clip-path="url(#clip0_14085_2123)">
<path d="M136.535 12.6974C166.312 29.7476 184.738 64.4686 181.35 98.8208C177.132 141.583 147.988 174.277 105.058 180.378C54.4769 187.568 9.94608 156.951 1.50343 106.241C-11.0466 30.8599 69.5243 -25.6753 136.535 12.6974ZM136.814 52.9349C131.393 56.2868 125.976 50.4915 129.285 45.2958L143.38 31.1657C143.335 30.7969 141.833 29.6217 141.389 29.2589C137.38 25.988 131.846 22.4922 127.316 20.1207C60.2632 -14.9961 -14.1077 57.492 18.5386 125.18C20.7632 129.791 23.5035 134.135 26.4326 138.249C26.9153 138.926 27.413 139.637 27.7968 140.381L30.63 143.663L31.3105 143.388L45.0419 129.533C50.3725 126.418 55.838 131.911 52.627 137.167L38.3591 151.452C38.6709 152.154 39.1266 152.097 39.3874 152.325C61.3845 171.555 94.1867 176.676 121.445 165.511C168.645 146.176 187.062 83.0209 154.299 42.1447C153.471 41.1104 152.194 39.9861 151.31 38.9368" fill="white"/>
<path d="M80.0716 134.93C67.5935 133.59 58.2425 123.942 54.3389 112.318C52.8429 107.863 51.041 99.861 51.3948 95.235C51.5657 92.9984 53.1817 90.8278 55.3913 90.2371C56.3836 89.9733 57.337 90.7318 56.6115 88.918C55.9519 87.266 54.9536 85.5721 54.3419 83.7612C52.8609 79.387 50.9901 71.2082 51.4068 66.687C51.6646 63.8988 53.6973 61.8811 56.4676 61.6293C58.6202 61.4344 62.3499 61.971 64.5325 62.3248C67.5366 62.8135 70.4567 63.8688 73.4398 64.3215C73.257 63.2122 73.182 62.1959 73.218 61.0656C73.4488 53.7742 76.9746 45.8083 80.8751 39.7671C82.1133 37.8483 86.3736 32.1879 88.1365 31.1296C92.9635 28.2304 97.2418 34.4755 99.7092 37.9413C105.055 45.4575 109.261 54.9165 108.293 64.3215C108.665 64.6843 112.835 63.2033 113.632 63.0294C116.654 62.3698 122.768 61.2965 125.694 61.6472C128.407 61.974 130.386 64.2766 130.467 66.9449C130.683 74.0714 128.218 82.559 125.361 89.1008C125.262 89.3257 124.65 89.3917 124.932 90.1772C126.392 89.9313 127.714 90.6898 128.77 91.6312C130.707 93.3611 130.626 97.2677 130.338 99.7411C128.599 114.78 121.46 130.127 105.561 134.102C102.485 134.87 99.5473 135.071 96.3783 134.924V147.18C96.3783 149.084 94.1387 151.779 92.2289 152.025C89.3598 152.397 86.9073 151.341 85.9839 148.58C85.9119 148.37 85.5851 148.112 85.5851 148.076V134.921C83.8193 134.783 81.8075 135.107 80.0746 134.921L80.0716 134.93ZM91.1526 44.603C90.9428 44.5071 90.7569 44.5131 90.538 44.5431C90.4691 44.7799 90.4541 45.0707 90.3012 45.2686C84.4758 52.8748 81.5077 64.3995 87.468 72.7762C87.8667 73.3338 90.622 76.4459 91.0867 76.4699L94.1267 73.145C99.7452 65.3349 98.0063 55.78 93.4312 47.862C93.1973 47.4602 91.3355 44.681 91.1526 44.6V44.603ZM85.5792 95.8046V92.5427C85.5792 90.9447 84.323 87.0711 83.5884 85.5391C81.2559 80.6822 76.4769 77.2314 71.533 75.3336C68.8078 74.2872 65.7317 73.5857 62.8715 73.094C64.0948 81.8664 68.439 91.8291 77.4903 94.7882C80.0626 95.6307 82.8839 95.7327 85.5792 95.8046ZM118.858 73.094C110.14 74.4641 99.8891 78.8803 97.2358 88.0095C96.5042 90.5309 96.3243 93.1693 96.3723 95.8046C103.916 96.0774 110.2 93.1603 114.229 86.7893C116.133 83.7792 117.872 79.351 118.567 75.8372C118.75 74.9198 118.954 74.0414 118.855 73.094H118.858ZM85.5792 124.362V120.878C85.5792 117.415 82.8119 111.835 80.4224 109.398C76.9206 105.824 68.8288 102.116 63.8789 101.651C63.5431 101.618 63.2013 101.657 62.8685 101.651C64.1427 110.276 68.3011 120.176 77.2204 123.168C79.7958 124.032 82.8719 124.368 85.5822 124.365L85.5792 124.362ZM119.083 101.654C118.495 101.237 111.929 103.219 110.835 103.636C104.65 105.98 99.6702 109.842 97.2897 115.991C96.6661 118.728 96.2134 121.498 96.3693 124.365C101.739 124.403 107.189 122.955 111.111 119.199C115.71 114.792 117.947 107.794 119.083 101.657V101.654Z" fill="white"/>
</g>
<defs>
<clipPath id="clip0_14085_2123">
<rect width="181.55" height="181.079" fill="white" transform="translate(0.199219 0.341797)"/>
</clipPath>
</defs>
</svg>
