<svg width="183" height="193" viewBox="0 0 183 193" fill="none" xmlns="http://www.w3.org/2000/svg">
<g clip-path="url(#clip0_14085_2227)">
<path d="M115.283 1.29473C118.037 3.2507 117.375 6.70099 117.655 9.57116C119.307 26.6555 126.481 47.6093 137.931 60.8152C138.897 61.9299 140.312 62.6649 141.418 61.2343C145.02 56.5631 147.325 50.8865 149.64 45.5167C151.832 42.4127 156.221 41.9935 158.794 45.0186C159.972 46.4066 161.053 48.4385 162.053 49.9753C172.051 65.3498 179.875 83.0112 181.965 101.438C187.098 146.702 155.374 181.621 112.795 190.474C72.3058 198.896 30.2646 184.12 11.2698 146.14C2.49832 128.609 -0.192663 108.208 1.38062 88.5967C2.07007 79.9953 4.08375 69.6657 6.35255 61.5107C7.13616 58.6982 8.11414 54.109 11.6312 53.5471C19.0178 52.3656 18.714 59.6216 21.1013 64.4234C23.6556 69.5594 29.3504 75.6125 34.1128 78.4189C35.4248 79.1934 39.6223 81.4653 41.0012 81.4288C42.8873 81.3802 42.5805 79.3726 42.7628 78.261C43.4613 73.9603 44.3512 69.1341 45.4993 64.6573C52.6064 36.9669 72.8617 7.63038 102.657 1.22184C106.116 0.477719 112.349 -0.785766 115.28 1.29473H115.283ZM106.678 12.168C105.916 11.8248 105.57 12.5628 105.503 12.578C77.9763 18.5887 61.6179 45.4013 55.9383 70.7499C55.1486 74.2731 54.8023 77.8662 54.122 81.3438C52.6398 88.9429 45.8 94.3188 37.9518 92.5694C31.2912 91.0841 22.5713 84.7941 18.0185 79.7219C16.8978 78.4736 16.0929 76.7606 14.6229 75.8737C14.5531 76.4387 14.708 77.1069 14.6381 77.6444C14.3131 80.138 13.49 83.16 13.1772 85.9087C12.1476 94.9353 12.0352 104.372 13.1985 113.39C17.2228 144.545 36.4454 169.964 67.2185 178.101C88.473 183.719 109.831 181.955 129.311 173.059C159.924 159.075 176.224 129.384 169.558 96.053C167.353 85.0279 162.697 73.6687 157.017 63.7157C156.713 63.1842 155.632 60.7484 155.189 60.7818C151.875 66.346 148.41 72.8456 141.339 73.4014C134.268 73.9573 131.024 70.6042 127.07 65.5168C115.708 50.8926 109.208 32.1711 106.702 14.1149C106.614 13.474 106.715 12.8119 106.681 12.171L106.678 12.168Z" fill="white"/>
<path d="M119.859 115.239C120.527 115.543 120.567 115.434 121.205 115.64C122.001 115.895 122.672 116.706 123.628 116.305C123.905 116.19 124.807 115.294 124.934 115.233C128.251 113.669 132.124 115.625 133.141 119.012L133.168 145.694C132.096 148.439 129.651 150.417 126.48 149.87C125.232 149.657 123.95 148.26 123.121 148.248C122.872 148.245 121.873 148.588 121.527 148.7C115.088 150.76 108.3 149.77 103.358 144.652C94.292 135.261 98.1644 119.564 110.347 115.637C111.829 115.16 115.009 114.599 116.716 114.747C117.123 114.784 119.714 115.17 119.859 115.236V115.239ZM121.843 132.327C121.843 128.986 119.133 126.277 115.789 126.277C112.445 126.277 109.736 128.986 109.736 132.327C109.736 135.668 112.445 138.377 115.789 138.377C119.133 138.377 121.843 135.668 121.843 132.327Z" fill="white"/>
<path d="M46.6836 118.277L51.6039 114.149C56.4848 109.408 64.3056 115.146 60.8766 121.095C59.689 123.158 53.8242 126.939 51.7619 128.831C51.5554 129.02 50.9904 129.43 51.0451 129.727L61.3595 140.16C64.9191 143.823 62.4499 150.125 57.3413 150.125C53.1863 150.125 49.8211 144.172 46.79 141.855C46.5834 142.681 46.7414 143.537 46.6351 144.388C45.8423 150.751 38.0397 152.084 35.3609 146.043L35.3184 103.735C35.8408 103.516 35.6555 103.13 35.8438 102.784C37.736 99.2609 43.0967 98.8782 45.4475 102.095C45.8545 102.65 46.6897 104.603 46.6897 105.141V118.274L46.6836 118.277Z" fill="white"/>
<path d="M88.6188 112.968C89.5937 113.272 91.9627 114.447 92.9711 115.112C94.6264 116.203 96.2088 118.605 95.9294 120.667C95.4495 124.197 92.0903 126.45 88.6309 125.667C87.7015 125.457 85.8397 124.017 85.2201 123.868C82.0007 123.1 78.6658 123.878 76.6916 126.714C73.296 131.595 76.5762 137.733 82.1707 138.535C83.2216 138.687 85.5421 137.97 86.3317 137.238C86.5899 136.998 86.6233 136.567 86.8936 136.336C91.5679 132.327 98.2528 136.433 96.391 142.432C95.7654 144.446 92.3546 147.152 90.4775 148.109C81.624 152.625 70.3195 148.336 65.9095 139.486C58.5746 124.771 72.4577 107.938 88.6188 112.968Z" fill="white"/>
<path d="M146.101 100.573C147.219 101.408 147.954 102.738 148.261 104.102L148.267 145.278C146.697 151.449 138.508 151.559 136.892 145.253L136.868 104.099C137.861 99.8804 142.493 97.8819 146.101 100.576V100.573Z" fill="white"/>
</g>
<defs>
<clipPath id="clip0_14085_2227">
<rect width="181.55" height="192.609" fill="white" transform="translate(0.955078 0.155273)"/>
</clipPath>
</defs>
</svg>
