<svg width="183" height="182" viewBox="0 0 183 182" fill="none" xmlns="http://www.w3.org/2000/svg">
<g clip-path="url(#clip0_14085_2234)">
<path d="M182.382 91.0091C182.382 141.131 141.741 181.761 91.6084 181.761C41.4753 181.761 0.832031 141.131 0.832031 91.0091C0.832031 40.8897 41.4726 0.257324 91.6057 0.257324C141.739 0.257324 182.379 40.8897 182.379 91.0091H182.382ZM171.558 91.0091C171.558 46.8634 135.762 11.0728 91.6057 11.0728C47.4491 11.0728 11.6502 46.8607 11.6502 91.0091C11.6502 135.158 47.4463 170.945 91.6029 170.945C135.76 170.945 171.556 135.158 171.556 91.0091H171.558Z" fill="white"/>
<path d="M91.8635 97.7801C93.9693 98.9421 94.3758 101.989 95.1423 103.937C99.0948 114.018 103.285 124.228 106.877 134.384C107.682 136.656 107.924 138.156 106.304 140.106C105.772 140.747 105.437 140.756 104.875 141.02C104.681 141.113 104.7 141.342 104.556 141.386C103.975 141.555 103.08 141.626 102.466 141.552C98.7647 141.099 98.3856 137.174 97.3054 134.375C97.2454 134.223 97.0135 134.242 96.9398 134.067C96.8035 133.748 97.0681 133.192 96.5252 132.922L81.4818 132.812C80.1097 135.308 79.8342 139.441 77.2101 140.949C75.2816 142.057 72.9358 141.609 71.5801 139.902C69.9325 137.823 70.5845 135.846 71.3946 133.579C73.855 126.697 76.8801 119.864 79.5423 112.916C80.7344 109.804 83.2903 100.794 85.3033 98.7021C86.91 97.0327 89.8123 96.6481 91.8663 97.7801H91.8635ZM84.946 123.846H93.1292L89.1358 113.072L84.946 123.846Z" fill="white"/>
<path d="M58.001 138.312C57.9791 138.404 57.199 139.76 57.0626 139.956C56.6944 140.488 55.6551 141.162 55.0468 141.345C52.1609 142.218 49.7277 140.396 49.0294 137.703L49.0049 101.383C49.1058 100.472 49.755 99.0404 50.4097 98.3939C51.1216 97.6929 52.5237 97.2019 53.5111 97.1091C57.1772 96.7736 64.1984 96.7927 67.8863 97.0982C73.189 97.5374 73.8737 104.291 69.6211 105.832C69.452 105.892 68.1591 106.285 68.0772 106.285H57.9982V114.466H67.0789C68.0581 114.466 69.7821 115.377 70.3712 116.217C71.7733 118.214 71.5278 121.064 69.5938 122.564C69.3647 122.742 67.218 123.645 67.0761 123.645H57.9955V138.312H58.001Z" fill="white"/>
<path d="M109.793 106.288C109.555 106.25 107.897 105.62 107.629 105.456C105.895 104.392 105.444 102.521 105.69 100.59C105.799 99.7416 106.855 98.2304 107.558 97.7694C107.717 97.6658 107.987 97.7503 108.129 97.6876C108.322 97.6003 108.303 97.3657 108.45 97.3248C108.901 97.1939 109.692 97.1284 110.183 97.0984C116.503 96.7193 123.199 97.4066 129.56 97.0984C130.605 97.1639 131.852 97.5649 132.632 98.2522C133.933 99.3979 134.288 100.975 133.955 102.704C133.728 103.89 132.575 105.339 131.437 105.773C131.238 105.849 129.841 106.283 129.751 106.283H124.263V138.309C124.263 138.396 123.488 139.607 123.349 139.787C122.092 141.405 120.049 141.956 118.128 141.241C117.976 141.184 117.092 140.628 116.966 140.521C116.606 140.213 115.283 138.437 115.283 138.11V106.283C113.611 106.092 111.394 106.542 109.795 106.283L109.793 106.288Z" fill="white"/>
<path d="M108.779 45.9415C110.067 47.7418 110.271 51.3642 110.741 53.6583C111.542 57.5999 112.486 61.7242 113.275 65.6903C113.406 66.3477 113.152 67.2206 113.787 67.7716C114.017 67.5288 113.812 67.0433 113.891 66.7132C114.079 65.9222 114.889 64.1246 115.23 63.028C116.428 59.1574 117.685 54.6103 118.924 50.7614C119.516 48.9202 120.135 45.8624 121.774 44.8259C122.996 44.0539 124.728 43.8139 126.114 44.2394C126.253 44.283 127.822 45.4669 127.983 45.696C129.396 47.7091 130.822 54.5175 131.668 57.2425C132.625 60.3221 133.596 63.2081 134.453 66.4323C134.477 66.525 135.206 66.9642 134.846 67.7716C135.519 67.3815 135.331 66.315 135.459 65.693C136.46 60.8513 137.546 55.6986 138.583 50.6578C138.776 49.7167 138.844 48.4347 139.038 47.5563C139.071 47.409 139.384 47.4499 139.428 47.2781C139.491 47.0353 139.371 46.7544 139.488 46.4734C139.521 46.3916 140.511 45.3059 140.686 45.1696C141.908 44.2285 143.55 43.8957 145.072 44.2803C145.285 44.3349 147.096 45.5596 147.169 45.6796C147.27 45.8488 147.169 46.1515 147.235 46.2579C148.812 48.8547 147.718 50.0522 147.227 52.7199C145.372 62.8098 143.427 72.8234 141.239 82.8505C141.147 83.276 141.318 83.7916 141.226 84.2007C141.193 84.3399 140.909 84.3071 140.844 84.4872C140.765 84.7136 140.863 85.0354 140.721 85.3218C139.398 87.9732 136.662 89.0561 133.847 88.0278C131.676 87.2367 130.95 85.1909 130.301 83.1888C128.389 77.2996 126.856 70.4175 124.529 64.7274C124.423 64.4683 124.45 64.2501 124.464 63.9828C124.087 63.9364 124.346 64.3783 124.262 64.6374C124.207 64.8065 123.918 64.7547 123.875 64.9211C122.475 70.382 120.705 75.6056 118.94 81.1048C118.103 83.7098 117.874 86.9367 114.887 88.0278C113.07 88.6906 111.919 88.5951 110.181 87.7332C108.839 87.0676 108.291 85.7446 107.89 84.4844C107.666 83.7807 107.672 83.6443 107.495 82.8478C105.359 73.3553 103.654 63.8791 101.87 54.3511C101.504 52.4008 100.531 50.0986 100.708 48.1073C101.073 44.0075 106.343 42.5291 108.785 45.9415H108.779Z" fill="white"/>
<path d="M99.0465 66.2248C99.0465 78.4805 89.1093 88.415 76.8509 88.415C64.5924 88.415 54.6553 78.4805 54.6553 66.2248C54.6553 53.9691 64.5924 44.0347 76.8509 44.0347C89.1093 44.0347 99.0465 53.9691 99.0465 66.2248ZM90.0422 66.2303C90.0422 58.9418 84.1339 53.0362 76.8454 53.0362C69.5569 53.0362 63.6486 58.9445 63.6486 66.2303C63.6486 73.516 69.5569 79.4243 76.8454 79.4243C84.1339 79.4243 90.0422 73.516 90.0422 66.2303Z" fill="white"/>
<path d="M52.9098 79.348C53.1416 79.3916 54.8628 80.3272 55.1083 80.5427C56.6741 81.912 56.9686 84.2033 56.0139 86.0418C55.2693 87.4766 53.5372 88.3522 51.9142 88.5295C49.3501 88.8078 42.0534 88.8487 39.5493 88.5159C38.9492 88.4368 37.2226 87.8012 36.7234 87.4439C35.8996 86.8574 35.9023 85.75 35.2559 85.1935V47.1634C35.7823 46.757 35.7578 46.1514 36.246 45.524C36.7343 44.8966 37.1435 44.8612 37.6754 44.6075C37.869 44.5175 37.8499 44.2856 37.9945 44.242C40.2313 43.5928 42.2689 44.3047 43.4363 46.2714C43.5073 46.3887 43.7419 46.4105 43.7691 46.4733C43.8864 46.7406 43.8346 47.1007 43.9164 47.4253C43.9655 47.6189 44.2274 47.8617 44.2274 47.9163V79.3425H52.9098V79.348Z" fill="white"/>
</g>
<defs>
<clipPath id="clip0_14085_2234">
<rect width="181.55" height="181.506" fill="white" transform="translate(0.832031 0.257812)"/>
</clipPath>
</defs>
</svg>
