<svg width="182" height="182" viewBox="0 0 182 182" fill="none" xmlns="http://www.w3.org/2000/svg">
<g clip-path="url(#clip0_14085_2245)">
<path d="M98.2408 0.561773C124.13 2.2957 150.34 17.4973 165.509 39.3339C181.951 63.0101 185.598 91.1349 177.435 118.672C167.424 152.437 139.302 175.713 104.903 180.456C55.8599 187.219 12.3411 159.042 2.11641 110.27C-10.5358 49.9353 37.4072 -3.51024 98.2408 0.561773ZM103.947 11.9705C47.9597 2.5016 -1.87974 56.6434 13.2 111.709C15.7765 121.116 22.9533 135.811 30.1437 143.245C30.2548 143.359 30.271 143.611 30.3116 143.77L30.8996 143.621C37.8705 136.902 44.416 129.677 51.6199 123.242C53.8578 122.527 56.7269 122.961 58.1736 125.158C59.699 127.471 59.5039 129.135 58.2278 131.5L38.331 151.308L38.4015 151.714C39.6098 152.659 40.6908 153.792 41.891 154.735C71.43 177.945 115.924 177.018 144.081 151.15C174.994 122.752 180.751 72.8204 152.903 40.8024C152.613 40.4718 151.862 39.0847 151.388 38.8544L150.898 38.8138L131.689 58.2446C126.393 62.2515 119.893 56.5838 123.564 51C128.495 45.9066 133.681 41.0164 138.644 35.9745C139.698 34.9043 141.708 33.146 142.553 32.0596C142.862 31.664 143.358 31.3037 143.28 30.7781L134.745 24.3599C125.006 18.4456 114.597 13.7721 103.944 11.9705H103.947Z" fill="white"/>
<path d="M77.3742 28.2692C79.0296 28.5049 80.8556 30.0871 82.3701 30.9215C89.3166 34.747 95.9516 38.6104 102.755 42.6553C105.472 44.2728 109.281 45.4432 110.362 48.659L110.389 79.8453C112.313 81.059 114.375 82.0588 116.32 83.2021C120.37 85.5808 124.125 87.8864 128.175 90.2597C130.53 91.6387 137.953 95.0117 138.704 97.4446C139.484 109.092 138.815 120.91 139.05 132.616C138.69 136.645 135.791 137.217 132.914 138.948C126.138 143.02 119.438 146.81 112.53 150.682C109.896 152.158 107.301 154.67 103.925 154.193C102.373 153.973 96.8619 150.183 95.1361 149.205C89.1947 145.835 83.2479 142.462 77.3661 138.937C75.1255 137.593 72.1887 136.845 71.4409 134.025L71.0752 102.476C68.9322 101.37 66.8975 100.062 64.806 98.848C59.7532 95.9139 54.6273 92.9906 49.6504 90.0511C46.0687 87.9351 42.9748 87.5613 42.5305 82.5762C43.1075 72.2702 41.78 61.1541 42.5305 50.9429C42.926 45.5515 46.0742 45.2969 49.9809 42.9886C57.1496 38.754 64.5757 34.3515 71.9882 30.2794C73.8793 29.2418 74.9738 27.9251 77.3769 28.2665L77.3742 28.2692ZM76.8811 40.0084L76.3962 39.9542L59.1599 49.9757L76.5235 60.4904L94.0578 50.1302L76.8811 40.0084ZM99.7554 80.0458V59.7534L81.9854 69.6151V89.9888L99.7554 80.0458ZM53.6195 59.6722V80.0458L71.2242 89.9888V69.859C70.341 68.9189 68.8834 68.5477 67.8566 67.9327C63.557 65.3535 59.2764 62.7065 55.0499 60.4768C54.9145 60.4064 53.7359 59.5313 53.6167 59.6722H53.6195ZM106.054 89.726C105.746 89.5553 105.439 89.3927 105.076 89.3819C99.3084 92.6005 93.8519 95.7568 88.2085 99.1054C88.1029 99.1677 87.8401 99.0973 87.6911 99.1189L87.7154 99.7421L105.084 109.669C105.848 109.688 106.244 108.899 106.48 108.78C111.253 106.366 116.1 103.421 120.674 100.636C121.056 100.403 122.383 100.081 122.426 99.5145C122.486 98.7396 121.164 98.7044 120.671 98.4091C115.821 95.5129 110.866 92.4135 106.049 89.7232L106.054 89.726ZM81.9854 109.056V129.268L99.7554 139.536V118.999C99.5576 118.959 98.7746 118.688 98.669 118.62C94.0849 115.686 89.2733 112.996 84.4968 110.37C84.104 110.156 82.2753 108.764 81.9881 109.054L81.9854 109.056ZM128.121 109.056L110.343 119.092L110.517 139.536L128.121 129.595V109.059V109.056Z" fill="white"/>
</g>
<defs>
<clipPath id="clip0_14085_2245">
<rect width="181.55" height="181.108" fill="white" transform="translate(0.0761719 0.341797)"/>
</clipPath>
</defs>
</svg>
